<svg width="1024" height="1024" viewBox="0 0 1024 1024" fill="none" xmlns="http://www.w3.org/2000/svg">
<mask id="mask0_17_2" style="mask-type:luminance" maskUnits="userSpaceOnUse" x="100" y="98" width="824" height="824">
<path fill-rule="evenodd" clip-rule="evenodd" d="M924 354.627C924 344.845 924.004 335.062 923.944 325.279C923.895 317.038 923.8 308.799 923.576 300.562C923.092 282.609 922.033 264.502 918.84 246.749C915.602 228.741 910.314 211.98 901.981 195.617C893.789 179.534 883.088 164.817 870.32 152.058C857.555 139.299 842.834 128.605 826.746 120.418C810.366 112.083 793.587 106.797 775.558 103.56C757.803 100.372 739.691 99.315 721.738 98.83C713.495 98.607 705.253 98.513 697.008 98.462C687.22 98.402 677.432 98.407 667.644 98.407L553.997 98H468.997L357.361 98.407C347.554 98.407 337.747 98.402 327.94 98.462C319.678 98.513 311.42 98.607 303.161 98.83C285.167 99.315 267.014 100.373 249.217 103.565C231.164 106.801 214.36 112.085 197.958 120.414C181.835 128.602 167.083 139.297 154.291 152.058C141.501 164.816 130.78 179.53 122.573 195.61C114.217 211.981 108.919 228.752 105.673 246.77C102.477 264.516 101.418 282.617 100.931 300.562C100.709 308.8 100.613 317.039 100.563 325.279C100.503 335.063 100 347.216 100 356.999L100.003 467.089L100 552.998L100.508 665.427C100.508 675.223 100.504 685.019 100.563 694.815C100.613 703.067 100.709 711.317 100.932 719.566C101.418 737.542 102.479 755.675 105.678 773.452C108.923 791.484 114.22 808.269 122.569 824.653C130.777 840.759 141.5 855.495 154.291 868.272C167.082 881.049 181.83 891.757 197.95 899.956C214.362 908.302 231.174 913.595 249.238 916.836C267.027 920.029 285.174 921.088 303.161 921.573C311.42 921.796 319.679 921.891 327.941 921.941C337.748 922.001 347.554 921.997 357.361 921.997L470.006 922H555.217L667.644 921.996C677.432 921.996 687.22 922.001 697.008 921.941C705.253 921.891 713.495 921.796 721.738 921.573C739.698 921.087 757.816 920.027 775.579 916.832C793.597 913.591 810.368 908.3 826.739 899.959C842.831 891.761 857.554 881.051 870.32 868.272C883.086 855.497 893.786 840.763 901.978 824.66C910.316 808.268 915.604 791.475 918.844 773.431C922.034 755.661 923.092 737.535 923.577 719.566C923.8 711.316 923.895 703.066 923.944 694.815C924.005 685.019 924 675.223 924 665.427C924 665.427 923.994 554.983 923.994 552.998V466.999C923.994 465.533 924 354.627 924 354.627" fill="white"/>
</mask>
<g mask="url(#mask0_17_2)">
<rect x="100" y="98" width="824" height="824" rx="126" fill="#181919"/>
<g filter="url(#filter0_d_17_2)">
<rect x="256" y="254" width="512" height="512" rx="120" fill="#181919"/>
</g>
<g filter="url(#filter1_d_17_2)">
<path d="M403.04 397.2H436.84V600H403.04V397.2ZM304.76 540.2C304.76 526.853 307.446 515.587 312.82 506.4C318.193 497.04 325.3 489.933 334.14 485.08C342.98 480.227 352.34 477.8 362.22 477.8C372.273 477.8 381.113 480.313 388.74 485.34C396.54 490.367 402.606 497.56 406.94 506.92C411.446 516.107 413.7 527.2 413.7 540.2C413.7 553.027 411.446 564.12 406.94 573.48C402.606 582.84 396.54 590.033 388.74 595.06C381.113 600.087 372.273 602.6 362.22 602.6C352.34 602.6 342.98 600.173 334.14 595.32C325.3 590.467 318.193 583.36 312.82 574C307.446 564.64 304.76 553.373 304.76 540.2ZM339.6 540.2C339.6 547.307 341.073 553.46 344.02 558.66C346.966 563.86 350.953 567.847 355.98 570.62C361.006 573.393 366.38 574.78 372.1 574.78C377.126 574.78 381.98 573.48 386.66 570.88C391.513 568.107 395.413 564.12 398.36 558.92C401.48 553.72 403.04 547.48 403.04 540.2C403.04 532.92 401.48 526.68 398.36 521.48C395.413 516.28 391.513 512.38 386.66 509.78C381.98 507.007 377.126 505.62 372.1 505.62C366.38 505.62 361.006 507.007 355.98 509.78C350.953 512.553 346.966 516.54 344.02 521.74C341.073 526.94 339.6 533.093 339.6 540.2ZM461.166 540.2C461.166 527.72 464.026 516.8 469.746 507.44C475.639 498.08 483.526 490.8 493.406 485.6C503.459 480.4 514.813 477.8 527.466 477.8C540.119 477.8 551.386 480.4 561.266 485.6C571.319 490.8 579.206 498.08 584.926 507.44C590.819 516.8 593.766 527.72 593.766 540.2C593.766 552.507 590.819 563.427 584.926 572.96C579.206 582.32 571.319 589.6 561.266 594.8C551.386 600 540.119 602.6 527.466 602.6C514.813 602.6 503.459 600 493.406 594.8C483.526 589.6 475.639 582.32 469.746 572.96C464.026 563.427 461.166 552.507 461.166 540.2ZM495.486 540.2C495.486 546.96 496.873 552.94 499.646 558.14C502.593 563.167 506.493 567.153 511.346 570.1C516.199 572.873 521.573 574.26 527.466 574.26C533.359 574.26 538.733 572.873 543.586 570.1C548.439 567.153 552.253 563.167 555.026 558.14C557.973 552.94 559.446 546.96 559.446 540.2C559.446 533.44 557.973 527.46 555.026 522.26C552.253 517.06 548.439 513.073 543.586 510.3C538.733 507.527 533.359 506.14 527.466 506.14C521.573 506.14 516.199 507.527 511.346 510.3C506.493 513.073 502.593 517.06 499.646 522.26C496.873 527.46 495.486 533.44 495.486 540.2ZM688.022 480.4H725.202L681.002 538.38L727.802 600H690.622L663.582 562.04L637.062 600H598.582L645.902 538.38L601.182 480.4H639.662L663.582 514.98L688.022 480.4Z" fill="#181919"/>
</g>
<rect y="-2" width="1024" height="1024" fill="url(#paint0_linear_17_2)"/>
</g>
<defs>
<filter id="filter0_d_17_2" x="254" y="254" width="516" height="518" filterUnits="userSpaceOnUse" color-interpolation-filters="sRGB">
<feFlood flood-opacity="0" result="BackgroundImageFix"/>
<feColorMatrix in="SourceAlpha" type="matrix" values="0 0 0 0 0 0 0 0 0 0 0 0 0 0 0 0 0 0 127 0" result="hardAlpha"/>
<feMorphology radius="2" operator="dilate" in="SourceAlpha" result="effect1_dropShadow_17_2"/>
<feOffset dy="4"/>
<feComposite in2="hardAlpha" operator="out"/>
<feColorMatrix type="matrix" values="0 0 0 0 1 0 0 0 0 1 0 0 0 0 1 0 0 0 0.25 0"/>
<feBlend mode="normal" in2="BackgroundImageFix" result="effect1_dropShadow_17_2"/>
<feBlend mode="normal" in="SourceGraphic" in2="effect1_dropShadow_17_2" result="shape"/>
</filter>
<filter id="filter1_d_17_2" x="304.76" y="393.2" width="423.042" height="209.4" filterUnits="userSpaceOnUse" color-interpolation-filters="sRGB">
<feFlood flood-opacity="0" result="BackgroundImageFix"/>
<feColorMatrix in="SourceAlpha" type="matrix" values="0 0 0 0 0 0 0 0 0 0 0 0 0 0 0 0 0 0 127 0" result="hardAlpha"/>
<feOffset dy="-4"/>
<feComposite in2="hardAlpha" operator="out"/>
<feColorMatrix type="matrix" values="0 0 0 0 1 0 0 0 0 1 0 0 0 0 1 0 0 0 0.25 0"/>
<feBlend mode="normal" in2="BackgroundImageFix" result="effect1_dropShadow_17_2"/>
<feBlend mode="normal" in="SourceGraphic" in2="effect1_dropShadow_17_2" result="shape"/>
</filter>
<linearGradient id="paint0_linear_17_2" x1="512" y1="-442" x2="512" y2="674" gradientUnits="userSpaceOnUse">
<stop stop-color="white" stop-opacity="0.06"/>
<stop offset="1" stop-color="white" stop-opacity="0"/>
</linearGradient>
</defs>
</svg>
